# xmcd CD database file
#
# Track frame offsets:
#	150
#	18400
#	29855
#	39960
#	49737
#	62865
#	75770
#	85877
#	101140
#	112817
#	124452
#	134025
#	147422
#	159117
#	172617
#	190125
#
# Disc length: 2703 seconds
#
# Revision: 6
# Processed by: cddbd v1.5.2PL0 Copyright (c) Steve Scherf et al.
# Submitted via: CDex 1.50Beta7
#
DISCID=d00a8d10
DTITLE=Saint Preux - Concerto Pour Une Voix
DYEAR=1991
DGENRE=New Age
TTITLE0=Concerto Pour Une Voix - Voz de Danielle Licari
TTITLE1=Prelude Pour Piano
TTITLE2=Allegrésse
TTITLE3=Le Theme Du Garçon
TTITLE4=L'Archipell Du Souvenir
TTITLE5=Toccatta
TTITLE6=Divertissement
TTITLE7=La Recontre
TTITLE8=Le Reve
TTITLE9=Le Départ
TTITLE10=La Fête Triste
TTITLE11=Concerto Pour Piano
TTITLE12=Impromptu
TTITLE13=Adagio Pour Violon
TTITLE14=Concerto Pour Elle - Voz de Danielle Licari
TTITLE15=Impressions
EXTD=YEAR: 1991
EXTT0=
EXTT1=
EXTT2=
EXTT3=
EXTT4=
EXTT5=
EXTT6=
EXTT7=
EXTT8=
EXTT9=
EXTT10=
EXTT11=
EXTT12=
EXTT13=
EXTT14=
EXTT15=
PLAYORDER=
